<!-- <svg width="24px" height="24px" viewBox="0 0 24 24" xmlns="http://www.w3.org/2000/svg"><path d="M 254.889 341.143 C 254.508 340.668 253.708 340.668 253.327 341.143 L 245.327 351.142 C 244.848 351.745 245.199 352.641 245.961 352.756 C 246.01 352.764 246.059 352.767 246.108 352.767 L 250.108 352.767 L 250.108 359.766 C 250.108 360.319 250.556 360.766 251.108 360.766 L 257.108 360.766 C 257.661 360.766 258.108 360.319 258.108 359.766 L 258.108 352.767 L 262.107 352.767 C 262.878 352.766 263.358 351.931 262.972 351.264 C 262.947 351.222 262.919 351.181 262.888 351.142 L 254.889 341.143 Z M 257.108 350.767 L 256.108 350.767 L 256.108 358.766 L 252.108 358.766 L 252.108 350.767 L 248.189 350.767 L 254.108 343.368 L 260.026 350.767 L 257.108 350.767 Z" transform="matrix(-1, 0, 0, -1, 508.216522, 701.552734)"/></svg> -->
<svg width="24px" height="24px" viewBox="0 0 24 24" xmlns="http://www.w3.org/2000/svg"><path d="M12.781 2.375c-.381-.475-1.181-.475-1.562 0l-8 10A1.001 1.001 0 0 0 4 14h4v7a1 1 0 0 0 1 1h6a1 1 0 0 0 1-1v-7h4a1.001 1.001 0 0 0 .781-1.625l-8-10zM15 12h-1v8h-4v-8H6.081L12 4.601 17.919 12H15z" transform="scale(-1 1)"/></svg>